<?xml version="1.0" encoding="utf-8"?>
<!-- Generator: Adobe Illustrator 16.2.1, SVG Export Plug-In . SVG Version: 6.00 Build 0)  -->
<!DOCTYPE svg PUBLIC "-//W3C//DTD SVG 1.1//EN" "http://www.w3.org/Graphics/SVG/1.1/DTD/svg11.dtd">
<svg version="1.1" id="Layer_1" xmlns="http://www.w3.org/2000/svg" xmlns:xlink="http://www.w3.org/1999/xlink" x="0px" y="0px"
	 width="612px" height="792px" viewBox="0 0 612 792" enable-background="new 0 0 612 792" xml:space="preserve">
<g>
	<g>
		<path fill="#FFFFFF" d="M292.394,352.378c9.599,0,19.197,0,28.796,0c0,29.53,0,59.059,0,88.589c-9.599,0-19.197,0-28.796,0
			C292.394,411.438,292.394,381.908,292.394,352.378z M298.371,420.106c0,3.664,0,7.328,0,10.992c0,0.066,0,0.134,0,0.2
			c0.042,3.328,2.081,6.01,5.34,6.492c1.945,0.288,3.994,0.18,5.955-0.072c1.041-0.134,2.109-0.812,2.962-1.497
			c1.698-1.368,2.205-3.3,2.196-5.441c-0.029-7.395-0.003-14.79-0.024-22.185c-0.003-0.707,0.175-1.117,0.831-1.497
			c2.505-1.451,4.044-3.666,4.091-6.562c0.108-6.693,0.105-13.391,0.009-20.084c-0.059-4.065-3.615-7.546-7.669-7.641
			c-3.595-0.084-7.195-0.093-10.79-0.003c-4.412,0.111-7.846,3.69-7.856,8.074c-0.016,6.396-0.025,12.791,0.005,19.187
			c0.015,3.126,1.481,5.477,4.145,7.047c0.61,0.36,0.823,0.722,0.818,1.399C298.356,412.379,298.37,416.243,298.371,420.106z
			 M306.526,370.197c4.12,0.017,7.417-3.195,7.446-7.255c0.03-4.185-3.178-7.503-7.284-7.536c-4.124-0.033-7.458,3.189-7.478,7.223
			C299.19,366.919,302.342,370.18,306.526,370.197z"/>
		<path fill-rule="evenodd" clip-rule="evenodd" d="M298.37,420.106c0-3.863-0.014-7.728,0.013-11.592
			c0.005-0.678-0.208-1.039-0.818-1.399c-2.663-1.57-4.13-3.921-4.145-7.047c-0.03-6.396-0.021-12.791-0.005-19.187
			c0.01-4.384,3.444-7.963,7.856-8.074c3.595-0.09,7.195-0.081,10.79,0.003c4.054,0.095,7.61,3.576,7.669,7.641
			c0.097,6.694,0.1,13.391-0.009,20.084c-0.047,2.896-1.586,5.111-4.091,6.562c-0.656,0.38-0.834,0.79-0.831,1.497
			c0.021,7.395-0.005,14.79,0.024,22.185c0.009,2.142-0.498,4.073-2.196,5.441c-0.853,0.686-1.921,1.363-2.962,1.497
			c-1.961,0.252-4.01,0.36-5.955,0.072c-3.259-0.482-5.298-3.164-5.34-6.492c-0.001-0.066,0-0.134,0-0.2
			C298.371,427.435,298.371,423.771,298.37,420.106z"/>
		<path fill-rule="evenodd" clip-rule="evenodd" d="M306.526,370.197c-4.185-0.017-7.336-3.277-7.315-7.568
			c0.019-4.034,3.354-7.256,7.478-7.223c4.106,0.033,7.314,3.351,7.284,7.536C313.943,367.001,310.646,370.214,306.526,370.197z"/>
	</g>
</g>
</svg>
